<svg xmlns="http://www.w3.org/2000/svg" viewBox="0 0 512 512" fill="none">
  <defs>
    <linearGradient id="bg" x1="0" y1="0" x2="0" y2="1">
      <stop offset="0%" stop-color="#0d1b4e"/>
      <stop offset="100%" stop-color="#1a1a3e"/>
    </linearGradient>
    <linearGradient id="sun" x1="0" y1="0" x2="0" y2="1">
      <stop offset="0%" stop-color="#FFD166"/>
      <stop offset="100%" stop-color="#F4845F"/>
    </linearGradient>
    <linearGradient id="glow" x1="0" y1="0" x2="1" y2="0">
      <stop offset="0%" stop-color="#1a1a3e"/>
      <stop offset="35%" stop-color="#F4845F" stop-opacity="0.8"/>
      <stop offset="65%" stop-color="#F4845F" stop-opacity="0.8"/>
      <stop offset="100%" stop-color="#1a1a3e"/>
    </linearGradient>
    <clipPath id="above"><rect x="0" y="0" width="512" height="310"/></clipPath>
  </defs>
  <rect width="512" height="512" rx="90" fill="url(#bg)"/>
  <ellipse cx="256" cy="310" rx="230" ry="50" fill="url(#glow)" opacity="0.9"/>
  <circle cx="256" cy="310" r="135" fill="url(#sun)" clip-path="url(#above)"/>
  <g stroke="#FFD166" stroke-width="11" stroke-linecap="round" opacity="0.9">
    <line x1="256" y1="140" x2="256" y2="105"/>
    <line x1="332" y1="163" x2="356" y2="133"/>
    <line x1="382" y1="234" x2="416" y2="216"/>
    <line x1="180" y1="163" x2="156" y2="133"/>
    <line x1="130" y1="234" x2="96" y2="216"/>
    <line x1="360" y1="196" x2="390" y2="168"/>
    <line x1="152" y1="196" x2="122" y2="168"/>
  </g>
  <line x1="45" y1="310" x2="467" y2="310" stroke="#F4845F" stroke-width="3" opacity="0.5"/>
  <g stroke="#F4845F" stroke-linecap="round" opacity="0.45">
    <line x1="175" y1="342" x2="337" y2="342" stroke-width="9"/>
    <line x1="200" y1="367" x2="312" y2="367" stroke-width="6"/>
    <line x1="224" y1="389" x2="288" y2="389" stroke-width="4"/>
  </g>
</svg>
