<svg xmlns="http://www.w3.org/2000/svg" viewBox="0 0 100 100" width="400" height="400">
  <defs>
    <linearGradient id="bg" x1="0%" y1="0%" x2="100%" y2="100%">
      <stop offset="0%" stop-color="#3730a3"/>
      <stop offset="100%" stop-color="#4f46e5"/>
    </linearGradient>
    <linearGradient id="sunGrad" x1="0%" y1="100%" x2="100%" y2="0%">
      <stop offset="0%" stop-color="#f59e0b"/>
      <stop offset="100%" stop-color="#fde68a"/>
    </linearGradient>
  </defs>

  <rect width="100" height="100" rx="24" fill="url(#bg)"/>

  <g transform="translate(50, 32)">
    <g stroke="#fde68a" stroke-width="2" stroke-linecap="round" opacity="0.9">
      <line x1="0" y1="-19" x2="0" y2="-23"/>
      <line x1="11" y1="-15" x2="13.5" y2="-18"/>
      <line x1="-11" y1="-15" x2="-13.5" y2="-18"/>
      <line x1="17" y1="-6" x2="20" y2="-7"/>
      <line x1="-17" y1="-6" x2="-20" y2="-7"/>
    </g>
    <path d="M-14 0 A14 14 0 0 1 14 0 Z" fill="url(#sunGrad)"/>
    <line x1="-18" y1="0" x2="18" y2="0" stroke="#fde68a" stroke-width="1.5" opacity="0.6"/>
  </g>

  <rect x="22" y="38" width="56" height="46" rx="12" fill="white" opacity="0.96"/>

  <rect x="33" y="50" width="12" height="10" rx="4" fill="#4f46e5"/>
  <rect x="55" y="50" width="12" height="10" rx="4" fill="#4f46e5"/>

  <circle cx="37" cy="53" r="2" fill="white"/>
  <circle cx="59" cy="53" r="2" fill="white"/>

  <path d="M36 68 Q50 77 64 68" stroke="#4f46e5" stroke-width="2.5" fill="none" stroke-linecap="round"/>

  <line x1="50" y1="38" x2="50" y2="30" stroke="white" stroke-width="2.5" stroke-linecap="round" opacity="0.9"/>
  <circle cx="50" cy="29" r="3" fill="#fde68a"/>
</svg>