<svg xmlns="http://www.w3.org/2000/svg" viewBox="0 0 512 512" fill="none">
  <defs>
    <linearGradient id="bg" x1="0" y1="0" x2="0" y2="1">
      <stop offset="0%" stop-color="#0d1b4e"/>
      <stop offset="100%" stop-color="#1a1a3e"/>
    </linearGradient>
    <linearGradient id="sun" x1="0" y1="0" x2="0" y2="1">
      <stop offset="0%" stop-color="#FFD166"/>
      <stop offset="100%" stop-color="#F4845F"/>
    </linearGradient>
    <linearGradient id="glow" x1="0" y1="0" x2="1" y2="0">
      <stop offset="0%" stop-color="#1a1a3e"/>
      <stop offset="40%" stop-color="#F4845F" stop-opacity="0.7"/>
      <stop offset="60%" stop-color="#F4845F" stop-opacity="0.7"/>
      <stop offset="100%" stop-color="#1a1a3e"/>
    </linearGradient>
    <clipPath id="above"><rect x="0" y="0" width="512" height="295"/></clipPath>
  </defs>
  <rect width="512" height="512" rx="90" fill="url(#bg)"/>
  <ellipse cx="256" cy="295" rx="230" ry="45" fill="url(#glow)" opacity="0.9"/>
  <circle cx="256" cy="295" r="115" fill="url(#sun)" clip-path="url(#above)"/>
  <g stroke="#FFD166" stroke-width="9" stroke-linecap="round" opacity="0.9">
    <line x1="256" y1="148" x2="256" y2="118"/>
    <line x1="324" y1="167" x2="344" y2="142"/>
    <line x1="370" y1="226" x2="400" y2="211"/>
    <line x1="188" y1="167" x2="168" y2="142"/>
    <line x1="142" y1="226" x2="112" y2="211"/>
    <line x1="350" y1="192" x2="376" y2="168"/>
    <line x1="162" y1="192" x2="136" y2="168"/>
  </g>
  <line x1="50" y1="295" x2="462" y2="295" stroke="#F4845F" stroke-width="2.5" opacity="0.5"/>
  <g stroke="#F4845F" stroke-linecap="round" opacity="0.4">
    <line x1="185" y1="322" x2="327" y2="322" stroke-width="7"/>
    <line x1="208" y1="343" x2="304" y2="343" stroke-width="5"/>
    <line x1="228" y1="361" x2="284" y2="361" stroke-width="3.5"/>
  </g>
  <text x="256" y="458" font-family="-apple-system,BlinkMacSystemFont,'Segoe UI',Helvetica,sans-serif"
        font-size="56" font-weight="700" fill="#ffffff" text-anchor="middle" letter-spacing="-1.5">Morgenruf</text>
</svg>
